<svg width="28" height="28" viewBox="0 0 28 28" fill="none" xmlns="http://www.w3.org/2000/svg">
    <path d="M26.5781 23.9219C26.7529 24.0961 26.8916 24.3031 26.9862 24.531C27.0809 24.7589 27.1296 25.0032 27.1296 25.25C27.1296 25.4968 27.0809 25.7411 26.9862 25.969C26.8916 26.197 26.7529 26.4039 26.5781 26.5781C26.2243 26.9274 25.7471 27.1232 25.25 27.1232C24.7528 27.1232 24.2757 26.9274 23.9218 26.5781L14 16.6563L4.07809 26.5781C3.72426 26.9274 3.24712 27.1232 2.74997 27.1232C2.25281 27.1232 1.77567 26.9274 1.42184 26.5781C1.24704 26.4039 1.10835 26.197 1.01371 25.969C0.919076 25.7411 0.870361 25.4968 0.870361 25.25C0.870361 25.0032 0.919076 24.7589 1.01371 24.531C1.10835 24.3031 1.24704 24.0961 1.42184 23.9219L11.3437 14L1.42184 4.07814C1.0696 3.7259 0.871713 3.24816 0.871713 2.75002C0.871713 2.50336 0.920295 2.25912 1.01469 2.03124C1.10908 1.80336 1.24743 1.5963 1.42184 1.42189C1.59625 1.24748 1.80331 1.10913 2.03119 1.01474C2.25907 0.920348 2.50331 0.871765 2.74997 0.871765C3.24811 0.871765 3.72585 1.06965 4.07809 1.42189L14 11.3438L23.9218 1.42189C24.2741 1.06965 24.7518 0.871765 25.25 0.871765C25.7481 0.871765 26.2259 1.06965 26.5781 1.42189C26.9303 1.77413 27.1282 2.25187 27.1282 2.75002C27.1282 3.24816 26.9303 3.7259 26.5781 4.07814L16.6562 14L26.5781 23.9219Z" 
        fill="#0A76D9"/>
</svg>