<svg width="139" height="139" viewBox="0 0 139 139" fill="none" xmlns="http://www.w3.org/2000/svg">
<path d="M27.8647 124.846C14.9199 114.977 5.60632 100.423 2.10497 84.5204C-7.91973 38.9956 30.4577 -4.577 77.0801 0.980605C103.989 4.189 128.034 24.7092 135.432 50.7803C139.599 65.467 138.347 81.438 132.655 95.6051L132.654 95.605C128.246 106.573 121.184 116.448 111.93 123.802L112.242 124.194L111.93 123.802C90.8761 140.538 59.6879 143.27 36.0229 130.513C43.5292 121.796 54.9676 117.437 66.2319 114.348C68.3579 113.764 70.5065 113.21 72.6618 112.654C82.0843 110.224 91.6344 107.76 99.9867 102.714C112.16 95.3594 120.908 82.6497 123.625 68.6948C126.344 54.7397 123.045 39.7622 114.887 28.1253L114.478 28.4123L114.887 28.1253C105.816 15.188 90.7389 6.56095 74.9541 5.67458C59.1696 4.78823 43.0602 11.7967 33.2345 24.1937L33.6195 24.4988L33.2345 24.1937C22.5715 37.6485 19.86 55.7543 20.3478 72.787L20.8476 72.7727L20.3478 72.787C20.8515 90.3571 24.3337 107.679 27.8647 124.846Z" fill="white" stroke="#141E39"/>
</svg>
