<svg width="119" height="123" viewBox="0 0 119 123" fill="none" xmlns="http://www.w3.org/2000/svg">
<g clip-path="url(#clip0_24_50)">
<mask id="mask0_24_50" style="mask-type:luminance" maskUnits="userSpaceOnUse" x="0" y="8" width="77" height="88">
<path d="M76.2926 23.9089L20.2089 8.09326L-1.08665e-05 79.7557L56.0836 95.5714L76.2926 23.9089Z" fill="white"/>
</mask>
<g mask="url(#mask0_24_50)">
<path d="M28.034 87.5701C28.6669 83.2677 29.5918 78.9792 29.8665 74.6555C30.2833 68.0118 29.1311 61.4843 25.8922 55.6567C23.6775 51.6458 19.7202 49.173 15.7832 46.9112C14.1161 45.9622 12.3728 45.1627 10.0821 44.0037C12.0126 43.978 13.3696 43.8476 14.7136 43.9644C27.5933 45.1451 35.3447 40.6609 42.0446 29.6548C44.6459 25.3944 47.1415 21.0243 48.3983 16.0427C48.7515 18.9472 48.1201 21.7108 47.8168 24.5213C46.9342 32.9378 46.7737 41.2957 51.7493 48.7532C53.9967 52.1234 57.2023 54.3158 60.8801 55.923C62.7846 56.7565 64.6008 57.7818 66.462 58.7285C66.0124 59.3543 65.4115 59.1848 64.8276 59.157C60.5414 58.9402 56.3297 59.5084 52.0911 60.0918C47.6042 60.7078 44.5596 63.6346 41.4408 66.3809C36.2823 70.9121 32.924 76.6465 30.7099 83.1255C30.1504 84.7464 29.2882 86.2705 28.5735 87.8363C28.3927 87.7511 28.2013 87.6629 28.0175 87.5883M52.6071 55.9616C47.1867 51.7764 44.2709 44.763 43.5451 34.3423C38.6764 40.7111 33.5521 46.6544 24.6539 47.4973C28.0747 50.7423 29.3478 54.8639 30.7637 58.9232C32.1704 62.9343 32.6281 67.1224 32.9942 71.3531C37.4024 63.4291 43.3884 57.82 52.6071 55.9616Z" fill="white"/>
</g>
</g>
<g clip-path="url(#clip1_24_50)">
<mask id="mask1_24_50" style="mask-type:luminance" maskUnits="userSpaceOnUse" x="60" y="0" width="59" height="67">
<path d="M118.842 12.0533L76.1004 0L60.6989 54.6148L103.441 66.6682L118.842 12.0533Z" fill="white"/>
</mask>
<g mask="url(#mask1_24_50)">
<path d="M82.064 60.5703C82.5463 57.2914 83.2512 54.023 83.4605 50.7279C83.7782 45.6647 82.9001 40.69 80.4317 36.2487C78.7438 33.192 75.728 31.3074 72.7275 29.5836C71.457 28.8604 70.1284 28.2511 68.3826 27.3678C69.8539 27.3482 70.888 27.2488 71.9124 27.3378C81.7281 28.2377 87.6356 24.8202 92.7417 16.4323C94.7241 13.1854 96.626 9.85494 97.5839 6.05839C97.853 8.27189 97.3718 10.3781 97.1407 12.52C96.4681 18.9343 96.3457 25.304 100.138 30.9874C101.851 33.5559 104.294 35.2268 107.096 36.4517C108.548 37.0869 109.932 37.8683 111.35 38.5898C111.008 39.0667 110.55 38.9375 110.105 38.9163C106.838 38.7511 103.629 39.1841 100.398 39.6287C96.9787 40.0982 94.6584 42.3288 92.2815 44.4217C88.3501 47.875 85.7907 52.2453 84.1034 57.183C83.6769 58.4183 83.0198 59.5799 82.4751 60.7732C82.3373 60.7082 82.1915 60.641 82.0514 60.5841M100.791 36.4811C96.6605 33.2915 94.4384 27.9465 93.8852 20.0047C90.1747 24.8585 86.2694 29.3879 79.488 30.0303C82.095 32.5034 83.0653 35.6445 84.1443 38.7381C85.2164 41.795 85.5652 44.9868 85.8442 48.2111C89.2038 42.1722 93.7658 37.8974 100.791 36.4811Z" fill="white"/>
</g>
</g>
<g clip-path="url(#clip2_24_50)">
<mask id="mask2_24_50" style="mask-type:luminance" maskUnits="userSpaceOnUse" x="44" y="73" width="44" height="50">
<path d="M87.0894 82.4526L55.8674 73.6479L44.6169 113.543L75.839 122.347L87.0894 82.4526Z" fill="white"/>
</mask>
<g mask="url(#mask2_24_50)">
<path d="M60.2236 117.893C60.576 115.498 61.0909 113.111 61.2438 110.704C61.4758 107.005 60.8344 103.371 59.0313 100.127C57.7983 97.8939 55.5953 96.5173 53.4035 95.2581C52.4755 94.7298 51.5049 94.2847 50.2297 93.6395C51.3045 93.6252 52.0599 93.5526 52.8081 93.6176C59.9783 94.2749 64.2935 91.7785 68.0234 85.6514C69.4716 83.2796 70.8609 80.8468 71.5606 78.0735C71.7572 79.6904 71.4057 81.2289 71.2368 82.7935C70.7455 87.479 70.6561 92.1319 73.4261 96.2835C74.6772 98.1598 76.4618 99.3803 78.5093 100.275C79.5695 100.739 80.5806 101.31 81.6167 101.837C81.3664 102.185 81.0319 102.091 80.7068 102.075C78.3207 101.955 75.976 102.271 73.6163 102.596C71.1185 102.939 69.4235 104.568 67.6873 106.097C64.8155 108.62 62.9459 111.812 61.7133 115.419C61.4019 116.321 60.9218 117.17 60.524 118.041C60.4233 117.994 60.3168 117.945 60.2145 117.903M73.9036 100.297C70.886 97.9666 69.2628 94.0622 68.8588 88.2609C66.1483 91.8065 63.2956 95.1152 58.3419 95.5844C60.2463 97.3909 60.9551 99.6854 61.7433 101.945C62.5264 104.178 62.7812 106.51 62.985 108.865C65.4391 104.454 68.7715 101.331 73.9036 100.297Z" fill="white"/>
</g>
</g>
<defs>
<clipPath id="clip0_24_50">
<rect width="58.271" height="74.4574" fill="white" transform="translate(20.2089 8.09326) rotate(15.7485)"/>
</clipPath>
<clipPath id="clip1_24_50">
<rect width="44.4091" height="56.7449" fill="white" transform="translate(76.1004) rotate(15.7485)"/>
</clipPath>
<clipPath id="clip2_24_50">
<rect width="32.4398" height="41.4508" fill="white" transform="translate(55.8674 73.6479) rotate(15.7485)"/>
</clipPath>
</defs>
</svg>
