<svg width="81" height="81" viewBox="0 0 81 81" fill="none" xmlns="http://www.w3.org/2000/svg">
<circle cx="40.5" cy="40.5" r="40" fill="white" stroke="#141E39"/>
<g clip-path="url(#clip0_11_27)">
<mask id="mask0_11_27" style="mask-type:luminance" maskUnits="userSpaceOnUse" x="15" y="5" width="53" height="68">
<path d="M68 5H15V73H68V5Z" fill="white"/>
</mask>
<g mask="url(#mask0_11_27)">
<path d="M41.4701 72.9198C40.962 68.9811 40.713 64.9823 39.8861 61.1138C38.6109 55.1707 35.9908 49.7186 31.7169 45.3991C28.788 42.4226 24.7133 41.2299 20.7085 40.2177C19.0148 39.7968 17.2914 39.5262 15 39.0752C16.6836 38.5741 17.8393 38.1231 19.0447 37.8926C30.6111 35.7378 36.2897 29.8749 39.4378 18.5399C40.6632 14.1502 41.769 9.69035 41.6395 5C42.6656 7.46544 42.7951 10.0511 43.2235 12.5968C44.5286 20.2136 46.4513 27.5999 52.6479 32.9216C55.4474 35.3269 58.7947 36.4594 62.4111 36.9605C64.284 37.2211 66.1271 37.6721 67.99 38.0429C67.7509 38.7044 67.1831 38.7044 66.665 38.8246C62.8594 39.6965 59.3128 41.2399 55.7462 42.8034C51.9705 44.457 50.0278 47.7844 47.9756 50.9714C44.5784 56.233 43.0541 62.106 42.7154 68.3497C42.6258 69.9132 42.2472 71.4666 42.0081 73.0201C41.8288 72.99 41.6395 72.9599 41.4602 72.9399M55.1784 39.0451C49.4002 36.71 45.1164 31.2679 41.9085 22.2881C39.2186 29.0931 36.2 35.5875 28.6186 38.534C32.4143 40.5384 34.5462 43.8457 36.7878 47.0628C39.0094 50.2398 40.444 53.8077 41.8088 57.4357C43.7117 49.3779 47.5671 42.9637 55.1784 39.0451Z" fill="#0A76D9"/>
</g>
</g>
<defs>
<clipPath id="clip0_11_27">
<rect width="53" height="68" fill="white" transform="translate(15 5)"/>
</clipPath>
</defs>
</svg>
