<svg width="78" height="88" viewBox="0 0 78 88" fill="none" xmlns="http://www.w3.org/2000/svg">
<g clip-path="url(#clip0_35_174)">
<mask id="mask0_35_174" style="mask-type:luminance" maskUnits="userSpaceOnUse" x="0" y="0" width="35" height="45">
<path d="M35 0H0V45H35V0Z" fill="white"/>
</mask>
<g mask="url(#mask0_35_174)">
<path d="M17.4803 44.9469C17.1447 42.3405 16.9803 39.6942 16.4342 37.1341C15.5921 33.2012 13.8618 29.5932 11.0395 26.7347C9.10526 24.7649 6.41447 23.9757 3.76974 23.3058C2.65132 23.0273 1.51316 22.8482 0 22.5497C1.11184 22.2181 1.875 21.9197 2.67105 21.7671C10.3092 20.3412 14.0592 16.4613 16.1382 8.96021C16.9474 6.05527 17.6776 3.10391 17.5921 0C18.2697 1.63154 18.3553 3.34267 18.6382 5.02727C19.5 10.0678 20.7697 14.9558 24.8618 18.4775C26.7105 20.0693 28.9211 20.8187 31.3092 21.1503C32.5461 21.3228 33.7632 21.6212 34.9934 21.8666C34.8355 22.3043 34.4605 22.3043 34.1184 22.3839C31.6053 22.9609 29.2632 23.9823 26.9079 25.017C24.4145 26.1113 23.1316 28.3132 21.7763 30.4223C19.5329 33.9042 18.5263 37.7907 18.3026 41.9226C18.2434 42.9573 17.9934 43.9853 17.8355 45.0133C17.7171 44.9934 17.5921 44.9735 17.4737 44.9602M26.5329 22.5298C22.7171 20.9845 19.8882 17.3832 17.7697 11.4407C15.9934 15.944 14 20.2417 8.99342 22.1916C11.5 23.5181 12.9079 25.7067 14.3882 27.8357C15.8553 29.9381 16.8026 32.2992 17.7039 34.7001C18.9605 29.3677 21.5066 25.1231 26.5329 22.5298Z" fill="#61B3FB"/>
</g>
</g>
<g clip-path="url(#clip1_35_174)">
<mask id="mask1_35_174" style="mask-type:luminance" maskUnits="userSpaceOnUse" x="33" y="30" width="45" height="58">
<path d="M78 30H33V88H78V30Z" fill="white"/>
</mask>
<g mask="url(#mask1_35_174)">
<path d="M55.4746 87.9316C55.0432 84.5721 54.8318 81.1614 54.1297 77.8618C53.047 72.7926 50.8224 68.1424 47.1936 64.4581C44.7068 61.9192 41.2472 60.902 37.8468 60.0386C36.4088 59.6796 34.9455 59.4488 33 59.0641C34.4295 58.6367 35.4107 58.252 36.4342 58.0554C46.2547 56.2175 51.0761 51.2168 53.7491 41.5487C54.7895 37.8046 55.7284 34.0006 55.6184 30C56.4897 32.1029 56.5996 34.3083 56.9633 36.4796C58.0714 42.9763 59.7039 49.2763 64.9652 53.8155C67.3421 55.8671 70.1842 56.833 73.2547 57.2604C74.8449 57.4827 76.4098 57.8674 77.9915 58.1836C77.7885 58.7478 77.3064 58.7478 76.8665 58.8504C73.6353 59.5941 70.6241 60.9105 67.5959 62.2441C64.39 63.6545 62.7406 66.4926 60.9981 69.2109C58.1137 73.6987 56.8195 78.708 56.532 84.0336C56.4558 85.3671 56.1344 86.6921 55.9314 88.0171C55.7791 87.9915 55.6184 87.9658 55.4662 87.9487M67.1137 59.0385C62.2077 57.0467 58.5705 52.405 55.8468 44.7458C53.563 50.55 51 56.0893 44.563 58.6025C47.7857 60.3122 49.5959 63.1331 51.4991 65.8771C53.3853 68.5869 54.6034 71.6301 55.7622 74.7245C57.3778 67.8517 60.6513 62.3808 67.1137 59.0385Z" fill="#61B3FB"/>
</g>
</g>
<defs>
<clipPath id="clip0_35_174">
<rect width="35" height="45" fill="white"/>
</clipPath>
<clipPath id="clip1_35_174">
<rect width="45" height="58" fill="white" transform="translate(33 30)"/>
</clipPath>
</defs>
</svg>
