<svg width="144" height="184" viewBox="0 0 144 184" fill="none" xmlns="http://www.w3.org/2000/svg">
<g clip-path="url(#clip0_302_24)">
<mask id="mask0_302_24" style="mask-type:luminance" maskUnits="userSpaceOnUse" x="0" y="0" width="144" height="184">
<path d="M144 0H0V184H144V0Z" fill="white"/>
</mask>
<g mask="url(#mask0_302_24)">
<path d="M71.9188 183.783C70.5383 173.125 69.8616 162.305 67.615 151.837C64.1504 135.756 57.0316 121.003 45.4195 109.315C37.4617 101.261 26.391 98.0339 15.5098 95.2949C10.9083 94.1559 6.22556 93.4237 0 92.2034C4.57444 90.8475 7.71429 89.6271 10.9895 89.0034C42.415 83.1729 57.8436 67.3085 66.397 36.6373C69.7263 24.7593 72.7308 12.6915 72.3789 0C75.1669 6.67119 75.5188 13.6678 76.6827 20.5559C80.2286 41.1661 85.4526 61.1525 102.289 75.5525C109.895 82.061 118.989 85.1254 128.815 86.4814C133.904 87.1864 138.911 88.4068 143.973 89.4102C143.323 91.2 141.78 91.2 140.373 91.5254C130.033 93.8848 120.397 98.061 110.707 102.292C100.448 106.766 95.1699 115.769 89.594 124.393C80.3639 138.631 76.2226 154.522 75.3023 171.417C75.0586 175.647 74.0301 179.851 73.3804 184.054C72.8932 183.973 72.3789 183.892 71.8917 183.837M109.164 92.122C93.4647 85.8034 81.8256 71.078 73.1098 46.7797C65.8015 65.1932 57.6 82.7661 37.0015 90.739C47.3143 96.1627 53.1068 105.112 59.197 113.817C65.2331 122.414 69.1308 132.068 72.8391 141.885C78.009 120.081 88.4842 102.725 109.164 92.122Z" fill="#575757"/>
</g>
</g>
<defs>
<clipPath id="clip0_302_24">
<rect width="144" height="184" fill="white"/>
</clipPath>
</defs>
</svg>
